<?xml version="1.0" encoding="UTF-8"?>
<svg id="_圖層_2" data-name="圖層 2" xmlns="http://www.w3.org/2000/svg" viewBox="0 0 335.19 335.34">
  <defs>
    <style>
      .cls-1 {
        fill: #5c3a31;
      }
    </style>
  </defs>
  <g id="_圖層_1-2" data-name="圖層 1">
    <g>
      <path class="cls-1" d="m167.84,263.43c47.4,0,94.8,0,142.2,0,18.62,0,28.6,12.44,24.07,30.51-4.83,19.24-17.92,31.04-36,37.33-6.94,2.42-14.6,3.82-21.93,3.85-72.34.28-144.69.28-217.04.09-19.11-.05-35.55-6.96-48.18-21.74-6.15-7.2-9.66-15.63-10.78-25.04-1.61-13.52,8.68-25,22.48-25,48.4-.01,96.79,0,145.19,0h0Z"/>
      <path class="cls-1" d="m24.22,169.06c2.83,1.91,5.33,3.48,7.7,5.22,20.24,14.86,45.53,14.39,65.45-1.3,8.14-6.42,17.18-8.42,27.04-5.19,3.35,1.1,6.6,3.02,9.42,5.17,21.08,16.12,46.74,16.08,67.65-.29,11.06-8.66,25.14-8.6,36.19.17,19.78,15.7,45.36,16.21,65.86,1.33,2.31-1.67,4.69-3.25,7.52-5.2v70.29H24.22v-70.22Z"/>
      <path class="cls-1" d="m23.6,141.97c.39-5.32.1-12.17,1.51-18.66,3.49-16.08,17.83-27.29,34.35-27.52,11.22-.16,22.45-.14,33.67.08,1.63.03,3.65,1.31,4.79,2.62,22.53,26.09,61.13,28.47,86.48,5.2,1.65-1.51,3.27-3.11,4.64-4.87,1.62-2.08,3.27-3.45,6.2-3.23.99.07,2.44-1.41,3.11-2.52,10.01-16.52,19.82-33.16,29.97-49.59,1.66-2.69,4.39-5.17,7.21-6.58,4.34-2.17,9.75-.38,12.87,3.23,3.49,4.05,4.02,9.32,1.1,14.26-7.36,12.44-14.84,24.81-22.26,37.21-.69,1.15-1.32,2.33-2.23,3.94,1.7.08,3,.19,4.3.19,14.84.01,29.68-.01,44.53.01,21.98.04,37.19,15.47,37.7,37.38.17,7.17-.6,11.87-8.83,13.79-4.71,1.09-9.01,4.69-13.04,7.76-11.06,8.43-25.43,8.59-36.32.01-20.66-16.28-46.01-16.54-66.92-.69-12.43,9.42-25.28,9.42-37.77,0-20.95-15.8-46.06-15.6-66.58.53-11.21,8.81-25.03,8.46-36.61.06-6.46-4.68-13.86-8.08-21.85-12.63Z"/>
      <path class="cls-1" d="m131.82,25.74c-2.84-.87-4.69-1.53-6.58-2.01-7.03-1.76-11.22-7.97-9.69-14.49,1.58-6.75,7.68-10.41,14.92-8.91,12.95,2.69,22.73,9.8,27.78,22.03,1.73,4.19,4.04,6.77,7.46,9.36,12.79,9.67,17.28,26.79,11.33,41.63-6,14.96-21.01,23.94-37.35,22.35-14.96-1.45-28.15-13.4-31.13-28.22-3.24-16.06,4.2-31.86,18.52-39.36,1.19-.63,2.41-1.21,4.74-2.39Z"/>
    </g>
  </g>
</svg>