<?xml version="1.0" encoding="UTF-8"?>
<svg id="_圖層_2" data-name="圖層 2" xmlns="http://www.w3.org/2000/svg" viewBox="0 0 384 334.32">
  <defs>
    <style>
      .cls-1 {
        fill: #5c3a31;
      }
    </style>
  </defs>
  <g id="_圖層_1-2" data-name="圖層 1">
    <g>
      <path class="cls-1" d="m0,179.79c1.01-4.6,1.77-9.27,3.05-13.8,13.72-48.25,71.46-70,113.52-42.76,1.34.87,2.8,2.34,3.18,3.8,5.13,19.69,14.21,37.14,28.95,51.85-1,.55-1.78,1.09-2.64,1.45-20.39,8.58-37.1,21.83-50.09,39.68-1.51,2.07-3.07,2.77-5.55,2.76-20.98-.08-41.96-.05-62.94-.05C11.28,222.71,6.04,219.24,0,204.5,0,196.26,0,188.03,0,179.79Z"/>
      <path class="cls-1" d="m384,204.5c-.35.91-.74,1.8-1.05,2.73-3.06,9.13-10.81,15.3-20.45,15.38-23.37.2-46.75.11-70.12.03-1.16,0-2.75-.69-3.4-1.59-13.6-18.77-31.05-32.62-52.53-41.41-.31-.13-.55-.45-.45-.36,5-6.78,10.26-13.25,14.79-20.2,6.23-9.57,10.24-20.18,13.28-31.18.47-1.71,1.8-3.58,3.27-4.54,45.97-30.04,108.9-.93,115.95,53.56.13.97.47,1.91.71,2.87v24.71Z"/>
      <path class="cls-1" d="m192.01,334.16c-24.24,0-48.48-.41-72.71.15-15.22.35-28.74-10.63-28.33-28.3.35-15.07-.13-30.11,4.18-44.87,11.46-39.24,47-68.42,87.86-71.75,53.13-4.34,99.8,31.39,108.34,83.78,1.95,11.95,1.68,24.38,1.29,36.55-.46,14.43-11.5,24.34-26.05,24.41-24.86.12-49.72.03-74.59.04Z"/>
      <path class="cls-1" d="m249.06,110.11c-1.6,19.95-9.92,40.86-27.79,57.13-18.12,16.51-41.13,16.43-59.02-.47-18.19-17.18-27.64-38.68-27.19-63.79.57-31.68,30.74-57.38,62.3-53.75,30.17,3.47,51.84,27.36,51.69,60.87Z"/>
      <path class="cls-1" d="m31.33,47.56C31.37,21.41,49.65,1.48,71.88.1c24.7-1.53,45.99,15.07,48.08,38.84,1.98,22.57-6.65,41.39-24.65,55.18-13.08,10.02-29.56,8.71-42.28-2.56-14.11-12.51-20.6-28.68-21.71-44Z"/>
      <path class="cls-1" d="m352.88,44.13c-1.19,17.82-7.19,33.24-19.84,45.53-15.12,14.69-33.86,15.13-49.14.6-14.44-13.74-21.91-30.97-19.96-51.11,2.05-21.21,20.24-38.09,40.84-39.07,22.84-1.09,42.05,13.12,46.84,34.77.7,3.14.87,6.4,1.25,9.29Z"/>
    </g>
  </g>
</svg>