<?xml version="1.0" encoding="UTF-8"?>
<svg id="_圖層_2" data-name="圖層 2" xmlns="http://www.w3.org/2000/svg" viewBox="0 0 384 336.97">
  <defs>
    <style>
      .cls-1 {
        fill: #5c3a31;
      }
    </style>
  </defs>
  <g id="_圖層_1-2" data-name="圖層 1">
    <path class="cls-1" d="m0,14.34v-5.99C2.99,1.87,8.13-.13,15.11,0c16.61.33,33.24.1,49.86.11,7.33,0,10.95,2.78,13,9.87,1.31,4.55,2.56,9.11,3.87,13.66,2.05,7.12,4.13,14.24,6.21,21.38h4.89c92.11,0,184.21.05,276.32-.1,6.87-.01,11.84,1.99,14.74,8.33v5.99c-.49,1.24-1.1,2.45-1.46,3.73-14.41,50.28-28.8,100.56-43.2,150.84-2.46,8.59-5.54,10.87-14.48,10.87-61.74,0-123.47,0-185.21,0-2,0-4.01-.09-6,.04-.89.06-2.24.33-2.53.92-1.42,2.88-3.16,5.8-3.68,8.89-1.23,7.3,4.26,12.6,12.54,12.61,54.61.01,109.23,0,163.84,0,7.87,0,15.75-.04,23.62.02,4.98.03,8.66,2.35,10.64,6.9,3.25,7.46-2.25,15.43-10.74,15.5-12.86.11-25.72.03-39.29.03,20.26,6.64,30.75,20.98,28.21,37.81-2.57,16.96-16.05,29.19-32.59,29.54-16.29.35-30.77-11.07-33.9-26.67-1.85-9.26-.23-17.87,5-25.71,5.26-7.89,12.8-12.55,23.01-14.7h-102.14c17.47,4.15,28.81,18.87,27.54,36-1.23,16.47-14.73,29.9-31.21,31.03-16.77,1.15-32.2-10.42-35.44-26.56-3.74-18.66,5.8-32.99,27.61-40.74-9.13,0-17.62.08-26.11-.02-15.54-.18-28.58-10.61-32.4-25.69-2.52-9.95-.05-19.01,4.9-27.59,1.53-2.66,1.69-5.05.83-8.06-14.96-51.94-29.79-103.91-44.65-155.87-2.83-9.9-5.69-19.79-8.57-29.79-14.55,0-28.79-.25-43.02.11-6.98.17-12.11-1.87-15.11-8.34Z"/>
  </g>
</svg>