<svg xmlns="http://www.w3.org/2000/svg" xmlns:xlink="http://www.w3.org/1999/xlink" viewBox="0 0 1580.7 375.63"><defs><style>.b81a670a-4f52-4794-a1b3-bb590590cba0{fill:none;}.e77ca3fd-3bee-4d82-b814-51e93eeba805{clip-path:url(#b6074663-2864-4059-83b0-84f97d94bdaa);}.e0545047-b0d8-4c92-9d6b-d32df5185600{fill:#5d5d5e;}.a179ec08-42f8-40f2-9c85-40a1879b98ba{fill:#939393;}.ff2682e5-540f-4624-8611-5232a95e5ff8{fill:#8e8e8e;}.ebdd47c8-5348-4b4a-bb94-a02e1e21270f{fill:#525152;}.a58ad318-90d8-4f57-acdf-54787b685b16{fill:#5b5b5c;}.eb6d6093-30ba-412c-9cb6-ab4ff77aa4eb{fill:#565757;}.f0357ec0-9e79-459b-8e16-d98b4401b1ad{fill:#4c4c4c;}.e49a2f66-9234-4da3-b0e5-a6708256ea66{fill:#646565;}.a95bd298-2ce9-4f56-9a12-00a88e158d2a{fill:#616162;}.a7449375-31fa-4055-9206-94c1ee56b607{fill:#2a2a2a;}.e632101a-d607-47aa-a5b6-46542d646c99{fill:#fff;}.ff3f1d83-6405-423e-947e-f000e9e540b8{fill:#292929;}.ed5f8747-269d-482d-9c5c-cb6363527a19{fill:#aaa9a9;}.afa881f4-1d74-4d9a-8718-cb2095eec6d8{fill:#757676;}.e606ad30-2d8f-4401-9b6a-bd0e62c536bc{fill:#232323;}.a81e632b-380c-41f9-aa3f-7b701a9ea60f{fill:#a5a5a5;}.a88640c1-bb6e-407b-88f2-41a6c71b723d{fill:#1c1c1c;}.a658fa1d-5cc9-49dd-92dd-a582e7ffc6eb{fill:#7a7a7b;}.a0ef418c-dbd8-4488-a018-cfb10bfc63ab{fill:#231815;}.a74ffbf6-0658-4de4-ad44-e0ee40269813{fill:#363332;}.a85c6cd1-0f6e-4a91-bf0e-539c309861b8{fill:#404040;}.b5217435-626d-4250-b5fb-ca08aa4bfdc9{fill:#898a89;}.bb33b85d-0678-4454-9d8e-6a7a8a0a8490{fill:#909091;}.f7513a94-bd0a-4d3b-86d2-05adfa603be1{fill:#5d5e5f;}.e5ac86b9-7b35-40f9-b296-04ec35baf512{fill:#a7a6a6;}.a42b286c-28bf-42a0-8f66-b2174298ab22{fill:#a1a1a1;}.afcc2976-1cfb-410c-8dfd-f1529286007e{fill:#a0a0a0;}.a9a05799-5543-4f08-8421-47253e1bfbec{fill:url(#a855eb1f-4a43-437d-8ba6-a916516d9372);}.e41f5f7c-bda8-4663-99b5-d81ea5f27218{font-size:44.53px;fill:#595757;font-family:GenSenRoundedTW-H, GenSenRounded TW;}.f897c58a-5a9d-4832-9f23-00be80243011{letter-spacing:-0.04em;}.f5a03fff-7f02-41bc-8954-b36cbcfc2579{fill:url(#fde646d1-653f-462c-a5f2-025a99b1e416);}.b264c8b9-857c-4b4a-bf16-3e95b0d87b92{fill:url(#a189583b-68fd-42c0-906a-025fb46f338a);}.f799f27e-7d0a-4be6-9e87-901cd4ef486a{fill:url(#afe8be7b-0186-462b-997b-e2b0288632a3);}.a8f063ad-40e7-43cc-9690-843a69969c9a{fill:url(#b49cac7c-6ac5-4f8a-b158-b3a6129ddd4b);}.b3421d24-a21f-4675-aa25-138b1387972b{fill:url(#eeed3b66-19e8-48ce-a435-61049f9f1361);}.af79cb95-d2d8-495b-bef4-7232e5d877d3{font-size:26px;fill:#f7f8f8;}.af79cb95-d2d8-495b-bef4-7232e5d877d3,.b676f4fe-47c5-4e14-9ebf-eb4df66987ab{font-family:GenSenRoundedTW-B, GenSenRounded TW;}.ae8f9f63-92c7-4581-a58f-759f393cf0b4,.af79cb95-d2d8-495b-bef4-7232e5d877d3{letter-spacing:0.2em;}.a1bcabb6-1caf-4d9e-a6c5-c62914fe2d75,.a343619b-be35-4442-b62f-262be7185d66,.b676f4fe-47c5-4e14-9ebf-eb4df66987ab{fill:#b5b5b6;}.a1bcabb6-1caf-4d9e-a6c5-c62914fe2d75{letter-spacing:0.25em;}.b676f4fe-47c5-4e14-9ebf-eb4df66987ab{font-size:12px;letter-spacing:0.2em;}.eb0530bc-e27a-4f8d-81c7-2201a3b4486d{letter-spacing:0.19em;}.f3c2e127-94f7-4ee3-ac8c-b0ccfe14178d{letter-spacing:0.2em;}.e3637940-1db7-4c50-af08-2b8edfc74fd2{letter-spacing:0.17em;}.e85ed169-d6ee-4f16-b8e7-0d508f4fd061{letter-spacing:0.19em;}.e4740540-9ade-40b7-a0bf-237fc123a8cb{letter-spacing:0.21em;}.fe2f8800-8346-4f56-a25b-ead29a337ee7{letter-spacing:0.19em;}</style><clipPath id="b6074663-2864-4059-83b0-84f97d94bdaa" transform="translate(74.08 -15.55)"><rect class="b81a670a-4f52-4794-a1b3-bb590590cba0" width="1440" height="206.65"/></clipPath><linearGradient id="a855eb1f-4a43-437d-8ba6-a916516d9372" x1="137.18" y1="260.42" x2="294.27" y2="260.42" gradientUnits="userSpaceOnUse"><stop offset="0" stop-color="#dcdddd"/><stop offset="0.26" stop-color="#dbdbdc"/><stop offset="0.82" stop-color="#dcdddd"/></linearGradient><linearGradient id="fde646d1-653f-462c-a5f2-025a99b1e416" x1="461.56" y1="283.75" x2="514.52" y2="283.75" xlink:href="#a855eb1f-4a43-437d-8ba6-a916516d9372"/><linearGradient id="a189583b-68fd-42c0-906a-025fb46f338a" x1="386.64" y1="283.75" x2="439.61" y2="283.75" xlink:href="#a855eb1f-4a43-437d-8ba6-a916516d9372"/><linearGradient id="afe8be7b-0186-462b-997b-e2b0288632a3" x1="311.72" y1="283.75" x2="364.69" y2="283.75" xlink:href="#a855eb1f-4a43-437d-8ba6-a916516d9372"/><linearGradient id="b49cac7c-6ac5-4f8a-b158-b3a6129ddd4b" x1="536.47" y1="283.75" x2="589.44" y2="283.75" xlink:href="#a855eb1f-4a43-437d-8ba6-a916516d9372"/><linearGradient id="eeed3b66-19e8-48ce-a435-61049f9f1361" x1="611.39" y1="283.75" x2="664.36" y2="283.75" xlink:href="#a855eb1f-4a43-437d-8ba6-a916516d9372"/></defs><title>資產 1</title><g id="b76afe62-6c3d-4ef7-8a2d-a1711799646d" data-name="圖層 2"><g id="bca742ea-a62d-47e2-aba9-00c094d4cab6" data-name="圖層 3"><g class="e77ca3fd-3bee-4d82-b814-51e93eeba805"><polygon class="e0545047-b0d8-4c92-9d6b-d32df5185600" points="1463.54 0 1346.39 148.81 1580.69 148.81 1463.54 0"/><polygon class="e0545047-b0d8-4c92-9d6b-d32df5185600" points="1463.54 0 1463.54 148.81 1580.69 148.81 1463.54 0"/><polygon class="e0545047-b0d8-4c92-9d6b-d32df5185600" points="1491.66 35.72 1463.54 0 1435.42 35.72 1447.67 29.08 1463.54 37.68 1479.41 29.08 1491.66 35.72"/><polygon class="e0545047-b0d8-4c92-9d6b-d32df5185600" points="1479.41 29.08 1491.66 35.72 1463.54 0 1463.54 37.68 1479.41 29.08"/><polygon class="a179ec08-42f8-40f2-9c85-40a1879b98ba" points="1325.34 29.96 1233.5 146.62 1417.17 146.62 1325.34 29.96"/><polygon class="ff2682e5-540f-4624-8611-5232a95e5ff8" points="1325.34 29.96 1325.34 146.62 1417.17 146.62 1325.34 29.96"/><path class="e0545047-b0d8-4c92-9d6b-d32df5185600" d="M1218.85,163.79c-31.35,0-113.65-81-203.79-81s-172.44,81-203.79,81Z" transform="translate(74.08 -15.55)"/><path class="ebdd47c8-5348-4b4a-bb94-a02e1e21270f" d="M945.08,163.79c-19.54,0-70.86-50.5-127.06-50.5S710.51,163.79,691,163.79Z" transform="translate(74.08 -15.55)"/><path class="a58ad318-90d8-4f57-acdf-54787b685b16" d="M1272.86,143.79c-11.14,0-40.39-28.78-72.43-28.78s-61.28,28.78-72.43,28.78Z" transform="translate(74.08 -15.55)"/><path class="eb6d6093-30ba-412c-9cb6-ab4ff77aa4eb" d="M1015.06,82.8a157.66,157.66,0,0,0-17.95,1c23.31,13.77,49.17,38,74.51,79.95h147.23C1187.5,163.79,1105.2,82.8,1015.06,82.8Z" transform="translate(74.08 -15.55)"/><path class="f0357ec0-9e79-459b-8e16-d98b4401b1ad" d="M835.38,94.82c12.06,12.77,24.34,28.83,36.5,49h73.2C927.57,143.79,884.56,103.26,835.38,94.82Z" transform="translate(74.08 -15.55)"/><path class="e49a2f66-9234-4da3-b0e5-a6708256ea66" d="M1269,130.29a19.24,19.24,0,1,1-19.24-19.52A19.38,19.38,0,0,1,1269,130.29Z" transform="translate(74.08 -15.55)"/><path class="a95bd298-2ce9-4f56-9a12-00a88e158d2a" d="M1249.74,110.77a19.52,19.52,0,0,1,0,39Z" transform="translate(74.08 -15.55)"/><rect class="a7449375-31fa-4055-9206-94c1ee56b607" x="1321.39" y="122.44" width="4.87" height="27.69"/><polygon class="a7449375-31fa-4055-9206-94c1ee56b607" points="1326.12 130.9 1324.69 129.59 1329.43 124.25 1330.86 125.56 1326.12 130.9"/><path class="e49a2f66-9234-4da3-b0e5-a6708256ea66" d="M1227.25,143a16,16,0,1,1-16-16.26A16.15,16.15,0,0,1,1227.25,143Z" transform="translate(74.08 -15.55)"/><path class="a95bd298-2ce9-4f56-9a12-00a88e158d2a" d="M1211.22,126.71a16.26,16.26,0,0,1,0,32.52Z" transform="translate(74.08 -15.55)"/><rect class="a7449375-31fa-4055-9206-94c1ee56b607" x="1283.27" y="133.84" width="4.06" height="16.29"/><polygon class="a7449375-31fa-4055-9206-94c1ee56b607" points="1287.22 140.89 1286.02 139.8 1289.97 135.35 1291.17 136.44 1287.22 140.89"/><path class="e49a2f66-9234-4da3-b0e5-a6708256ea66" d="M1319.83,138.61a19.11,19.11,0,1,1-19.11-19.38A19.24,19.24,0,0,1,1319.83,138.61Z" transform="translate(74.08 -15.55)"/><path class="a95bd298-2ce9-4f56-9a12-00a88e158d2a" d="M1300.72,119.23a19.38,19.38,0,0,1,0,38.76Z" transform="translate(74.08 -15.55)"/><rect class="a7449375-31fa-4055-9206-94c1ee56b607" x="1372.38" y="130.71" width="4.84" height="19.42"/><polygon class="a7449375-31fa-4055-9206-94c1ee56b607" points="1377.09 139.11 1375.66 137.81 1380.37 132.51 1381.79 133.81 1377.09 139.11"/><path class="e49a2f66-9234-4da3-b0e5-a6708256ea66" d="M955.17,138.61a19.11,19.11,0,1,1-19.1-19.38A19.24,19.24,0,0,1,955.17,138.61Z" transform="translate(74.08 -15.55)"/><path class="a95bd298-2ce9-4f56-9a12-00a88e158d2a" d="M936.07,119.23a19.38,19.38,0,0,1,0,38.76Z" transform="translate(74.08 -15.55)"/><rect class="a7449375-31fa-4055-9206-94c1ee56b607" x="1007.73" y="130.71" width="4.84" height="19.42"/><polygon class="a7449375-31fa-4055-9206-94c1ee56b607" points="1012.43 139.11 1011.01 137.81 1015.72 132.51 1017.14 133.81 1012.43 139.11"/><path class="e49a2f66-9234-4da3-b0e5-a6708256ea66" d="M724.79,136.09a13.09,13.09,0,1,1-13.09-13.27A13.19,13.19,0,0,1,724.79,136.09Z" transform="translate(74.08 -15.55)"/><path class="a95bd298-2ce9-4f56-9a12-00a88e158d2a" d="M711.7,122.82a13.28,13.28,0,0,1,0,26.55Z" transform="translate(74.08 -15.55)"/><rect class="a7449375-31fa-4055-9206-94c1ee56b607" x="784.13" y="125.78" width="3.31" height="18.84"/><polygon class="a7449375-31fa-4055-9206-94c1ee56b607" points="787.35 131.54 786.37 130.65 789.6 127.01 790.57 127.9 787.35 131.54"/><path class="e49a2f66-9234-4da3-b0e5-a6708256ea66" d="M690.71,141.76a13,13,0,1,1-13-13.19A13.09,13.09,0,0,1,690.71,141.76Z" transform="translate(74.08 -15.55)"/><path class="a95bd298-2ce9-4f56-9a12-00a88e158d2a" d="M677.71,128.57a13.19,13.19,0,0,1,0,26.37Z" transform="translate(74.08 -15.55)"/><rect class="a7449375-31fa-4055-9206-94c1ee56b607" x="750.15" y="131.41" width="3.29" height="13.21"/><polygon class="a7449375-31fa-4055-9206-94c1ee56b607" points="753.35 137.13 752.38 136.24 755.58 132.63 756.55 133.51 753.35 137.13"/><path class="e49a2f66-9234-4da3-b0e5-a6708256ea66" d="M777.17,106.64a11.66,11.66,0,1,1-11.65-11.82A11.74,11.74,0,0,1,777.17,106.64Z" transform="translate(74.08 -15.55)"/><path class="a95bd298-2ce9-4f56-9a12-00a88e158d2a" d="M765.52,94.82a11.83,11.83,0,0,1,0,23.65Z" transform="translate(74.08 -15.55)"/><rect class="a7449375-31fa-4055-9206-94c1ee56b607" x="838.12" y="95.76" width="2.95" height="16.78"/><polygon class="a7449375-31fa-4055-9206-94c1ee56b607" points="840.99 100.89 840.12 100.09 843 96.86 843.86 97.65 840.99 100.89"/><path class="e49a2f66-9234-4da3-b0e5-a6708256ea66" d="M1082.56,84.32a9.71,9.71,0,1,1-9.71-9.85A9.78,9.78,0,0,1,1082.56,84.32Z" transform="translate(74.08 -15.55)"/><path class="a95bd298-2ce9-4f56-9a12-00a88e158d2a" d="M1072.85,74.47a9.85,9.85,0,0,1,0,19.7Z" transform="translate(74.08 -15.55)"/><rect class="a7449375-31fa-4055-9206-94c1ee56b607" x="1145.7" y="72.66" width="2.46" height="9.87"/><polygon class="a7449375-31fa-4055-9206-94c1ee56b607" points="1148.09 76.93 1147.37 76.27 1149.76 73.57 1150.48 74.23 1148.09 76.93"/><path class="e49a2f66-9234-4da3-b0e5-a6708256ea66" d="M1112,92.76A11.58,11.58,0,1,1,1100.38,81,11.65,11.65,0,0,1,1112,92.76Z" transform="translate(74.08 -15.55)"/><path class="a95bd298-2ce9-4f56-9a12-00a88e158d2a" d="M1100.38,81a11.75,11.75,0,0,1,0,23.49Z" transform="translate(74.08 -15.55)"/><rect class="a7449375-31fa-4055-9206-94c1ee56b607" x="1173" y="81.84" width="2.93" height="11.77"/><polygon class="a7449375-31fa-4055-9206-94c1ee56b607" points="1175.85 86.94 1174.99 86.15 1177.84 82.93 1178.7 83.72 1175.85 86.94"/><polygon class="e632101a-d607-47aa-a5b6-46542d646c99" points="895.98 106.75 938.24 84.46 938.24 157.7 895.98 157.7 895.98 106.75"/><polygon class="e632101a-d607-47aa-a5b6-46542d646c99" points="895.98 106.75 938.24 84.46 938.24 157.7 895.98 157.7 895.98 106.75"/><rect class="ff3f1d83-6405-423e-947e-f000e9e540b8" x="895.98" y="153.01" width="42.26" height="4.7"/><polygon class="ed5f8747-269d-482d-9c5c-cb6363527a19" points="968.29 121.96 968.29 157.7 938.24 157.7 938.24 106.11 968.29 121.96"/><polygon class="afa881f4-1d74-4d9a-8718-cb2095eec6d8" points="975.8 119.67 938.24 99.85 938.24 106.11 975.8 125.93 975.8 119.67"/><polygon class="e606ad30-2d8f-4401-9b6a-bd0e62c536bc" points="941.99 101.83 938.24 99.85 938.24 106.11 941.99 108.09 941.99 101.83"/><polygon class="ed5f8747-269d-482d-9c5c-cb6363527a19" points="968.29 121.96 968.29 157.7 938.24 157.7 938.24 106.11 968.29 121.96"/><polygon class="a81e632b-380c-41f9-aa3f-7b701a9ea60f" points="938.24 106.11 938.24 157.7 942.46 157.7 942.46 108.34 938.24 106.11"/><rect class="ff3f1d83-6405-423e-947e-f000e9e540b8" x="938.24" y="153.01" width="30.05" height="4.7"/><rect class="a88640c1-bb6e-407b-88f2-41a6c71b723d" x="938.24" y="153.01" width="4.23" height="4.7"/><polygon class="a658fa1d-5cc9-49dd-92dd-a582e7ffc6eb" points="889.87 103.71 938.24 78.19 938.24 84.46 889.87 109.97 889.87 103.71"/><polygon class="a81e632b-380c-41f9-aa3f-7b701a9ea60f" points="895.98 110.43 938.24 88.14 938.24 84.46 895.98 106.75 895.98 110.43"/><rect class="a0ef418c-dbd8-4488-a018-cfb10bfc63ab" x="908.83" y="133.63" width="15.32" height="24.08"/><rect class="a74ffbf6-0658-4de4-ad44-e0ee40269813" x="910.66" y="135.45" width="11.67" height="20.43"/><path class="a85c6cd1-0f6e-4a91-bf0e-539c309861b8" d="M840.85,161.34a1.22,1.22,0,1,1-1.22-1.22A1.22,1.22,0,0,1,840.85,161.34Z" transform="translate(74.08 -15.55)"/><rect class="e632101a-d607-47aa-a5b6-46542d646c99" x="909.7" y="111.08" width="14.11" height="10.71"/><rect class="b5217435-626d-4250-b5fb-ca08aa4bfdc9" x="910.82" y="112.2" width="11.88" height="8.48"/><rect class="e632101a-d607-47aa-a5b6-46542d646c99" x="949.18" y="128.12" width="7.99" height="10.71"/><rect class="b5217435-626d-4250-b5fb-ca08aa4bfdc9" x="950.29" y="129.24" width="5.75" height="8.48"/><rect class="bb33b85d-0678-4454-9d8e-6a7a8a0a8490" x="1136.98" y="108.32" width="81.19" height="49.38"/><rect class="ff3f1d83-6405-423e-947e-f000e9e540b8" x="1136.98" y="153.35" width="81.19" height="4.36"/><rect class="f7513a94-bd0a-4d3b-86d2-05adfa603be1" x="1136.98" y="108.32" width="81.19" height="16.74"/><rect class="a658fa1d-5cc9-49dd-92dd-a582e7ffc6eb" x="1136.98" y="101.63" width="81.19" height="20.09"/><polygon class="bb33b85d-0678-4454-9d8e-6a7a8a0a8490" points="1169.73 106.55 1169.73 116.69 1185.41 116.69 1185.41 106.55 1177.57 98.7 1169.73 106.55"/><polygon class="afa881f4-1d74-4d9a-8718-cb2095eec6d8" points="1177.57 96.53 1165.09 109.02 1167.26 111.19 1177.57 100.88 1187.88 111.19 1190.05 109.02 1177.57 96.53"/><rect class="b5217435-626d-4250-b5fb-ca08aa4bfdc9" x="1175.48" y="107.1" width="4.18" height="5.44"/><rect class="e632101a-d607-47aa-a5b6-46542d646c99" x="1144.91" y="131.32" width="7.99" height="12.64"/><rect class="b5217435-626d-4250-b5fb-ca08aa4bfdc9" x="1146.03" y="132.44" width="5.75" height="10.41"/><rect class="e632101a-d607-47aa-a5b6-46542d646c99" x="1156.63" y="131.32" width="7.98" height="12.64"/><rect class="b5217435-626d-4250-b5fb-ca08aa4bfdc9" x="1157.75" y="132.44" width="5.75" height="10.41"/><rect class="e632101a-d607-47aa-a5b6-46542d646c99" x="1190.52" y="131.32" width="7.98" height="12.64"/><rect class="b5217435-626d-4250-b5fb-ca08aa4bfdc9" x="1191.64" y="132.44" width="5.75" height="10.41"/><rect class="e632101a-d607-47aa-a5b6-46542d646c99" x="1202.24" y="131.32" width="7.99" height="12.64"/><rect class="b5217435-626d-4250-b5fb-ca08aa4bfdc9" x="1203.35" y="132.44" width="5.75" height="10.41"/><rect class="a0ef418c-dbd8-4488-a018-cfb10bfc63ab" x="1171.71" y="139.02" width="11.72" height="18.41"/><rect class="a74ffbf6-0658-4de4-ad44-e0ee40269813" x="1173.11" y="140.42" width="8.93" height="15.62"/><path class="a85c6cd1-0f6e-4a91-bf0e-539c309861b8" d="M1102.29,163.88a.93.93,0,1,1-.93-.93A.93.93,0,0,1,1102.29,163.88Z" transform="translate(74.08 -15.55)"/><rect class="a179ec08-42f8-40f2-9c85-40a1879b98ba" x="1166.52" y="154.84" width="22.1" height="2.86"/><rect class="e5ac86b9-7b35-40f9-b296-04ec35baf512" x="1044.43" y="82.23" width="81.18" height="75.47"/><rect class="e5ac86b9-7b35-40f9-b296-04ec35baf512" x="1044.43" y="124.14" width="81.18" height="33.56"/><rect class="e632101a-d607-47aa-a5b6-46542d646c99" x="1044.43" y="119.77" width="81.18" height="3.14"/><rect class="a88640c1-bb6e-407b-88f2-41a6c71b723d" x="1044.43" y="153.61" width="81.18" height="4.09"/><rect class="a42b286c-28bf-42a0-8f66-b2174298ab22" x="1044.43" y="82.23" width="81.18" height="16.74"/><rect class="a658fa1d-5cc9-49dd-92dd-a582e7ffc6eb" x="1044.43" y="75.54" width="81.18" height="20.09"/><polygon class="e5ac86b9-7b35-40f9-b296-04ec35baf512" points="1077.18 80.46 1077.18 90.6 1092.86 90.6 1092.86 80.46 1085.02 72.61 1077.18 80.46"/><polygon class="afa881f4-1d74-4d9a-8718-cb2095eec6d8" points="1085.02 70.44 1072.54 82.93 1074.71 85.1 1085.02 74.78 1095.33 85.1 1097.5 82.93 1085.02 70.44"/><rect class="b5217435-626d-4250-b5fb-ca08aa4bfdc9" x="1082.93" y="81.01" width="4.18" height="5.44"/><rect class="e632101a-d607-47aa-a5b6-46542d646c99" x="1052.37" y="131.32" width="7.98" height="12.64"/><rect class="b5217435-626d-4250-b5fb-ca08aa4bfdc9" x="1053.48" y="132.44" width="5.75" height="10.41"/><rect class="e632101a-d607-47aa-a5b6-46542d646c99" x="1064.08" y="131.32" width="7.98" height="12.64"/><rect class="b5217435-626d-4250-b5fb-ca08aa4bfdc9" x="1065.2" y="132.44" width="5.75" height="10.41"/><rect class="e632101a-d607-47aa-a5b6-46542d646c99" x="1097.97" y="131.32" width="7.98" height="12.64"/><rect class="b5217435-626d-4250-b5fb-ca08aa4bfdc9" x="1099.09" y="132.44" width="5.75" height="10.41"/><rect class="e632101a-d607-47aa-a5b6-46542d646c99" x="1109.69" y="131.32" width="7.98" height="12.64"/><rect class="b5217435-626d-4250-b5fb-ca08aa4bfdc9" x="1110.8" y="132.44" width="5.75" height="10.41"/><rect class="e632101a-d607-47aa-a5b6-46542d646c99" x="1052.37" y="102.27" width="7.98" height="12.64"/><rect class="b5217435-626d-4250-b5fb-ca08aa4bfdc9" x="1053.48" y="103.38" width="5.75" height="10.41"/><rect class="e632101a-d607-47aa-a5b6-46542d646c99" x="1064.08" y="102.27" width="7.98" height="12.64"/><rect class="b5217435-626d-4250-b5fb-ca08aa4bfdc9" x="1065.2" y="103.38" width="5.75" height="10.41"/><rect class="e632101a-d607-47aa-a5b6-46542d646c99" x="1097.97" y="102.27" width="7.98" height="12.64"/><rect class="b5217435-626d-4250-b5fb-ca08aa4bfdc9" x="1099.09" y="103.38" width="5.75" height="10.41"/><rect class="e632101a-d607-47aa-a5b6-46542d646c99" x="1109.69" y="102.27" width="7.98" height="12.64"/><rect class="b5217435-626d-4250-b5fb-ca08aa4bfdc9" x="1110.8" y="103.38" width="5.75" height="10.41"/><rect class="a0ef418c-dbd8-4488-a018-cfb10bfc63ab" x="1079.16" y="131.64" width="11.72" height="25.8"/><rect class="a74ffbf6-0658-4de4-ad44-e0ee40269813" x="1080.56" y="133.04" width="8.93" height="23"/><path class="a85c6cd1-0f6e-4a91-bf0e-539c309861b8" d="M1009.74,163.88a.93.93,0,1,1-.93-.93A.93.93,0,0,1,1009.74,163.88Z" transform="translate(74.08 -15.55)"/><rect class="e632101a-d607-47aa-a5b6-46542d646c99" x="1081.03" y="102.27" width="7.98" height="12.64"/><rect class="b5217435-626d-4250-b5fb-ca08aa4bfdc9" x="1082.14" y="103.38" width="5.75" height="10.41"/><rect class="a179ec08-42f8-40f2-9c85-40a1879b98ba" x="1073.97" y="154.84" width="22.1" height="2.86"/><polygon class="a179ec08-42f8-40f2-9c85-40a1879b98ba" points="94.37 27.59 0 147.47 188.74 147.47 94.37 27.59"/><polygon class="ff2682e5-540f-4624-8611-5232a95e5ff8" points="94.37 27.59 94.37 147.47 188.74 147.47 94.37 27.59"/><polygon class="a81e632b-380c-41f9-aa3f-7b701a9ea60f" points="117.02 56.36 94.37 27.59 71.72 56.36 81.59 51.02 94.37 57.94 107.16 51.02 117.02 56.36"/><polygon class="afcc2976-1cfb-410c-8dfd-f1529286007e" points="107.16 51.02 117.02 56.36 94.37 27.59 94.37 57.94 107.16 51.02"/><polygon class="e0545047-b0d8-4c92-9d6b-d32df5185600" points="241.04 62.15 149.2 146.81 332.87 146.81 241.04 62.15"/><polygon class="e0545047-b0d8-4c92-9d6b-d32df5185600" points="241.04 62.15 241.04 146.81 332.87 146.81 241.04 62.15"/><path class="e49a2f66-9234-4da3-b0e5-a6708256ea66" d="M589,130.48A19.24,19.24,0,1,1,569.74,111,19.38,19.38,0,0,1,589,130.48Z" transform="translate(74.08 -15.55)"/><path class="a95bd298-2ce9-4f56-9a12-00a88e158d2a" d="M569.74,111a19.52,19.52,0,0,1,0,39Z" transform="translate(74.08 -15.55)"/><rect class="a7449375-31fa-4055-9206-94c1ee56b607" x="641.39" y="122.63" width="4.87" height="27.69"/><polygon class="a7449375-31fa-4055-9206-94c1ee56b607" points="646.12 131.09 644.69 129.78 649.43 124.44 650.86 125.75 646.12 131.09"/><path class="e49a2f66-9234-4da3-b0e5-a6708256ea66" d="M547.25,143.16a16,16,0,1,1-16-16.26A16.15,16.15,0,0,1,547.25,143.16Z" transform="translate(74.08 -15.55)"/><path class="a95bd298-2ce9-4f56-9a12-00a88e158d2a" d="M531.22,126.9a16.26,16.26,0,0,1,0,32.52Z" transform="translate(74.08 -15.55)"/><rect class="a7449375-31fa-4055-9206-94c1ee56b607" x="603.27" y="134.03" width="4.06" height="16.29"/><polygon class="a7449375-31fa-4055-9206-94c1ee56b607" points="607.22 141.08 606.02 139.99 609.97 135.54 611.17 136.63 607.22 141.08"/><path class="e49a2f66-9234-4da3-b0e5-a6708256ea66" d="M639.83,138.8a19.11,19.11,0,1,1-19.11-19.38A19.25,19.25,0,0,1,639.83,138.8Z" transform="translate(74.08 -15.55)"/><path class="a95bd298-2ce9-4f56-9a12-00a88e158d2a" d="M620.72,119.42a19.38,19.38,0,0,1,0,38.76Z" transform="translate(74.08 -15.55)"/><rect class="a7449375-31fa-4055-9206-94c1ee56b607" x="692.38" y="130.9" width="4.84" height="19.42"/><polygon class="a7449375-31fa-4055-9206-94c1ee56b607" points="697.09 139.3 695.66 138 700.37 132.69 701.79 134 697.09 139.3"/><path class="e49a2f66-9234-4da3-b0e5-a6708256ea66" d="M275.17,138.8a19.11,19.11,0,1,1-19.1-19.38A19.24,19.24,0,0,1,275.17,138.8Z" transform="translate(74.08 -15.55)"/><path class="a95bd298-2ce9-4f56-9a12-00a88e158d2a" d="M256.07,119.42a19.38,19.38,0,0,1,0,38.76Z" transform="translate(74.08 -15.55)"/><rect class="a7449375-31fa-4055-9206-94c1ee56b607" x="327.73" y="130.9" width="4.84" height="19.42"/><polygon class="a7449375-31fa-4055-9206-94c1ee56b607" points="332.43 139.3 331.01 138 335.71 132.69 337.14 134 332.43 139.3"/><path class="e49a2f66-9234-4da3-b0e5-a6708256ea66" d="M4.79,136.28A13.19,13.19,0,0,1-8.3,149.56a13.18,13.18,0,0,1-13.08-13.28A13.17,13.17,0,0,1-8.3,123,13.18,13.18,0,0,1,4.79,136.28Z" transform="translate(74.08 -15.55)"/><path class="a95bd298-2ce9-4f56-9a12-00a88e158d2a" d="M-8.3,123A13.18,13.18,0,0,1,4.79,136.28,13.19,13.19,0,0,1-8.3,149.56Z" transform="translate(74.08 -15.55)"/><rect class="a7449375-31fa-4055-9206-94c1ee56b607" x="64.13" y="125.97" width="3.31" height="18.84"/><polygon class="a7449375-31fa-4055-9206-94c1ee56b607" points="67.35 131.73 66.37 130.84 69.6 127.2 70.57 128.09 67.35 131.73"/><path class="e49a2f66-9234-4da3-b0e5-a6708256ea66" d="M-29.29,141.94a13.09,13.09,0,0,1-13,13.19,13.09,13.09,0,0,1-13-13.19,13.09,13.09,0,0,1,13-13.18A13.09,13.09,0,0,1-29.29,141.94Z" transform="translate(74.08 -15.55)"/><path class="a95bd298-2ce9-4f56-9a12-00a88e158d2a" d="M-42.29,128.76a13.09,13.09,0,0,1,13,13.18,13.09,13.09,0,0,1-13,13.19Z" transform="translate(74.08 -15.55)"/><rect class="a7449375-31fa-4055-9206-94c1ee56b607" x="30.15" y="131.6" width="3.29" height="13.21"/><polygon class="a7449375-31fa-4055-9206-94c1ee56b607" points="33.35 137.31 32.38 136.43 35.58 132.82 36.55 133.7 33.35 137.31"/><polygon class="a658fa1d-5cc9-49dd-92dd-a582e7ffc6eb" points="165.41 47.38 137.55 68.87 137.55 74.45 193.26 74.45 193.26 68.87 165.41 47.38"/><polygon class="bb33b85d-0678-4454-9d8e-6a7a8a0a8490" points="165.41 52.95 137.55 74.45 137.55 157.89 165.41 157.89 193.26 157.89 193.26 74.45 165.41 52.95"/><polygon class="a88640c1-bb6e-407b-88f2-41a6c71b723d" points="137.55 153.91 137.55 157.89 165.41 157.89 193.26 157.89 193.26 153.91 137.55 153.91"/><rect class="a0ef418c-dbd8-4488-a018-cfb10bfc63ab" x="156.71" y="130.58" width="17.38" height="27.32"/><rect class="a74ffbf6-0658-4de4-ad44-e0ee40269813" x="158.78" y="132.65" width="13.24" height="23.18"/><path class="a85c6cd1-0f6e-4a91-bf0e-539c309861b8" d="M89.55,159.92a1.38,1.38,0,1,1-1.38-1.38A1.38,1.38,0,0,1,89.55,159.92Z" transform="translate(74.08 -15.55)"/><rect class="e632101a-d607-47aa-a5b6-46542d646c99" x="154.23" y="105.37" width="9.06" height="14.34"/><rect class="b5217435-626d-4250-b5fb-ca08aa4bfdc9" x="155.5" y="106.64" width="6.53" height="11.81"/><rect class="e632101a-d607-47aa-a5b6-46542d646c99" x="167.52" y="105.37" width="9.06" height="14.34"/><rect class="b5217435-626d-4250-b5fb-ca08aa4bfdc9" x="168.79" y="106.64" width="6.53" height="11.81"/><rect class="e632101a-d607-47aa-a5b6-46542d646c99" x="154.23" y="80.3" width="9.06" height="14.34"/><rect class="b5217435-626d-4250-b5fb-ca08aa4bfdc9" x="155.5" y="81.56" width="6.53" height="11.81"/><rect class="e632101a-d607-47aa-a5b6-46542d646c99" x="167.52" y="80.3" width="9.06" height="14.34"/><rect class="b5217435-626d-4250-b5fb-ca08aa4bfdc9" x="168.79" y="81.56" width="6.53" height="11.81"/><rect class="a179ec08-42f8-40f2-9c85-40a1879b98ba" x="154.36" y="155.03" width="22.1" height="2.86"/></g><rect class="ebdd47c8-5348-4b4a-bb94-a02e1e21270f" x="76.08" y="148.81" width="1438.16" height="226.82"/><circle class="a9a05799-5543-4f08-8421-47253e1bfbec" cx="215.72" cy="260.42" r="78.55"/><text class="e41f5f7c-bda8-4663-99b5-d81ea5f27218" transform="translate(151.21 275.55)"><tspan class="f897c58a-5a9d-4832-9f23-00be80243011">L</tspan><tspan x="24.67" y="0">OGO</tspan></text><circle class="f5a03fff-7f02-41bc-8954-b36cbcfc2579" cx="488.04" cy="283.75" r="26.48"/><circle class="b264c8b9-857c-4b4a-bf16-3e95b0d87b92" cx="413.12" cy="283.75" r="26.48"/><circle class="f799f27e-7d0a-4be6-9e87-901cd4ef486a" cx="338.21" cy="283.75" r="26.48"/><circle class="a8f063ad-40e7-43cc-9690-843a69969c9a" cx="562.96" cy="283.75" r="26.48"/><circle class="b3421d24-a21f-4675-aa25-138b1387972b" cx="637.87" cy="283.75" r="26.48"/><text class="af79cb95-d2d8-495b-bef4-7232e5d877d3" transform="translate(891.6 285.34)">營業時間|<tspan class="a343619b-be35-4442-b62f-262be7185d66"><tspan x="16.11" y="31.2">週二~週日(11:00~18:30)、週一公休</tspan></tspan></text><text class="af79cb95-d2d8-495b-bef4-7232e5d877d3" transform="translate(891.6 217.07)">電話<tspan class="a1bcabb6-1caf-4d9e-a6c5-c62914fe2d75"><tspan x="0" y="31.2">02-234567</tspan><tspan class="ae8f9f63-92c7-4581-a58f-759f393cf0b4" x="191.22" y="31.2">8</tspan></tspan></text><text class="b676f4fe-47c5-4e14-9ebf-eb4df66987ab" transform="translate(313.98 335.36)">Co<tspan class="eb0530bc-e27a-4f8d-81c7-2201a3b4486d" x="20.2" y="0">p</tspan><tspan class="f3c2e127-94f7-4ee3-ac8c-b0ccfe14178d" x="30.23" y="0">yright © I</tspan><tspan class="e3637940-1db7-4c50-af08-2b8edfc74fd2" x="109.47" y="0">T</tspan><tspan class="f3c2e127-94f7-4ee3-ac8c-b0ccfe14178d" x="119" y="0">O NOEN. All Righ</tspan><tspan class="e85ed169-d6ee-4f16-b8e7-0d508f4fd061" x="255.24" y="0">t</tspan><tspan class="f3c2e127-94f7-4ee3-ac8c-b0ccfe14178d" x="262.53" y="0">s </tspan><tspan class="e85ed169-d6ee-4f16-b8e7-0d508f4fd061" x="276" y="0">R</tspan><tspan class="f3c2e127-94f7-4ee3-ac8c-b0ccfe14178d" x="286.44" y="0">ese</tspan><tspan class="e4740540-9ade-40b7-a0bf-237fc123a8cb" x="313.52" y="0">r</tspan><tspan class="fe2f8800-8346-4f56-a25b-ead29a337ee7" x="321.32" y="0">v</tspan><tspan class="f3c2e127-94f7-4ee3-ac8c-b0ccfe14178d" x="330.54" y="0">ed.</tspan></text></g></g></svg>